<?xml version="1.0" encoding="UTF-8" standalone="no"?><!DOCTYPE svg PUBLIC "-//W3C//DTD SVG 1.1//EN" "http://www.w3.org/Graphics/SVG/1.1/DTD/svg11.dtd"><svg width="100%" height="100%" viewBox="0 0 440 440" version="1.1" xmlns="http://www.w3.org/2000/svg" xmlns:xlink="http://www.w3.org/1999/xlink" xml:space="preserve" xmlns:serif="http://www.serif.com/" style="fill-rule:evenodd;clip-rule:evenodd;stroke-linejoin:round;stroke-miterlimit:2;"><rect id="testIO-testerbadge-certified-exploratory" x="0.004" y="0" width="440" height="440" style="fill:none;"/><clipPath id="_clip1"><rect x="0.004" y="0" width="440" height="440"/></clipPath><g clip-path="url(#_clip1)"><g id="Badge"><path d="M220.003,427.624l-28.964,12.378l-24.772,-19.455l-31.179,4.461l-18.895,-25.198l-31.274,-3.764l-11.728,-29.233l-29.23,-11.73l-3.767,-31.271l-25.195,-18.896l4.456,-31.178l-19.451,-24.775l12.378,-28.962l-12.378,-28.964l19.451,-24.775l-4.456,-31.178l25.195,-18.896l3.767,-31.271l29.23,-11.727l11.728,-29.233l31.274,-3.765l18.895,-25.2l31.179,4.459l24.772,-19.451l28.964,12.376l28.964,-12.376l24.775,19.451l31.178,-4.459l18.896,25.2l31.273,3.765l11.726,29.233l29.232,11.727l3.767,31.271l25.195,18.896l-4.456,31.178l19.451,24.775l-12.378,28.964l12.378,28.962l-19.451,24.775l4.456,31.178l-25.195,18.896l-3.767,31.271l-29.232,11.73l-11.726,29.233l-31.273,3.764l-18.896,25.198l-31.178,-4.461l-24.775,19.455l-28.964,-12.378Z" style="fill:#326dd1;"/><path d="M220.003,427.624l-28.964,12.378l-24.772,-19.455l-31.179,4.461l-18.895,-25.198l-31.274,-3.764l-11.728,-29.233l-29.23,-11.73l-3.767,-31.271l-25.195,-18.896l4.456,-31.178l-19.451,-24.775l12.378,-28.962l-12.378,-28.964l19.451,-24.775l-4.456,-31.178l25.195,-18.896l3.767,-31.271l29.23,-11.727l11.728,-29.233l31.274,-3.765l18.895,-25.2l31.179,4.459l24.772,-19.451l28.964,12.376l28.964,-12.376l24.775,19.451l31.178,-4.459l18.896,25.2l31.273,3.765l11.726,29.233l29.232,11.727l3.767,31.271l25.195,18.896l-4.456,31.178l19.451,24.775l-12.378,28.964l12.378,28.962l-19.451,24.775l4.456,31.178l-25.195,18.896l-3.767,31.271l-29.232,11.73l-11.726,29.233l-31.273,3.764l-18.896,25.198l-31.178,-4.461l-24.775,19.455l-28.964,-12.378Zm0.819,-1.915c-0.523,-0.224 -1.115,-0.224 -1.638,-0l-27.829,11.893c-0,-0 -23.802,-18.693 -23.802,-18.693c-0.447,-0.352 -1.018,-0.505 -1.582,-0.424l-29.957,4.286c0,-0 -18.155,-24.211 -18.155,-24.211c-0.341,-0.455 -0.853,-0.751 -1.417,-0.819l-30.049,-3.616c0,-0 -11.268,-28.088 -11.268,-28.088c-0.212,-0.528 -0.63,-0.946 -1.158,-1.158l-28.085,-11.27c-0,-0 -3.619,-30.047 -3.619,-30.047c-0.068,-0.564 -0.364,-1.076 -0.819,-1.417l-24.208,-18.155c-0,-0 4.281,-29.958 4.281,-29.958c0.081,-0.562 -0.072,-1.134 -0.423,-1.581l-18.689,-23.804c-0,0 11.893,-27.827 11.893,-27.827c0.223,-0.523 0.223,-1.115 -0,-1.638l-11.893,-27.829c-0,-0 18.689,-23.804 18.689,-23.804c0.351,-0.447 0.504,-1.019 0.423,-1.581l-4.281,-29.958c-0,0 24.208,-18.155 24.208,-18.155c0.455,-0.341 0.751,-0.853 0.819,-1.417l3.619,-30.047c-0,0 28.085,-11.268 28.085,-11.268c0.528,-0.212 0.946,-0.63 1.158,-1.158l11.268,-28.087c0,-0 30.049,-3.617 30.049,-3.617c0.564,-0.068 1.076,-0.364 1.417,-0.819l18.156,-24.213c-0,0 29.957,4.284 29.957,4.284c0.563,0.081 1.134,-0.073 1.581,-0.424l23.802,-18.688c-0,-0 27.829,11.89 27.829,11.89c0.523,0.224 1.115,0.224 1.638,0l27.829,-11.89c0,-0 23.804,18.688 23.804,18.688c0.447,0.351 1.019,0.505 1.582,0.424l29.957,-4.284c-0,0 18.155,24.213 18.155,24.213c0.341,0.455 0.853,0.751 1.418,0.819l30.048,3.617c-0,-0 11.266,28.087 11.266,28.087c0.212,0.528 0.63,0.946 1.158,1.158l28.088,11.268c-0,0 3.619,30.047 3.619,30.047c0.068,0.564 0.363,1.076 0.818,1.417l24.209,18.155c-0,0 -4.282,29.958 -4.282,29.958c-0.08,0.562 0.073,1.134 0.424,1.581l18.689,23.804c-0,-0 -11.894,27.829 -11.894,27.829c-0.223,0.523 -0.223,1.115 0.001,1.638l11.892,27.827c0.001,0 -18.688,23.804 -18.688,23.804c-0.351,0.447 -0.504,1.019 -0.424,1.581c0,0 4.282,29.958 4.282,29.958c-0,-0 -24.209,18.155 -24.209,18.155c-0.455,0.341 -0.75,0.853 -0.818,1.417l-3.619,30.047c-0,-0 -28.088,11.27 -28.088,11.27c-0.528,0.212 -0.946,0.63 -1.158,1.158l-11.266,28.088c-0,-0 -30.048,3.616 -30.048,3.616c-0.565,0.068 -1.077,0.364 -1.418,0.819l-18.155,24.211c-0,-0 -29.957,-4.286 -29.957,-4.286c-0.563,-0.081 -1.135,0.072 -1.582,0.423l-23.804,18.694c0,-0 -27.829,-11.893 -27.829,-11.893Z" style="fill:#fff;fill-opacity:0.5;"/><path id="badge-ring" serif:id="badge ring" d="M220.004,44.5c96.861,-0 175.5,78.639 175.5,175.5c0,96.861 -78.639,175.5 -175.5,175.5c-96.861,0 -175.5,-78.639 -175.5,-175.5c0,-96.861 78.639,-175.5 175.5,-175.5Zm0,2.083c95.711,0 173.417,77.706 173.417,173.417c-0,95.711 -77.706,173.417 -173.417,173.417c-95.711,-0 -173.417,-77.706 -173.417,-173.417c0,-95.711 77.706,-173.417 173.417,-173.417Z" style="fill:#1d1d1d;"/><rect id="Coverup" x="140.323" y="32" width="159.362" height="37.972" style="fill:#326dd1;"/><g id="Logo-test-IO" serif:id="Logo test IO"><path id="IO" d="M245.439,34.02l5.242,0l0,29.961l-5.242,-0l-0,-29.961Zm39.029,12.12c-0.183,-0.949 -0.459,-1.883 -0.823,-2.776c-0.369,-0.911 -0.831,-1.789 -1.373,-2.61c-0.554,-0.84 -1.2,-1.63 -1.917,-2.348c-0.718,-0.718 -1.508,-1.363 -2.349,-1.918c-0.819,-0.541 -1.697,-1.003 -2.608,-1.372c-0.893,-0.362 -1.827,-0.64 -2.778,-0.824c-1.875,-0.364 -3.84,-0.364 -5.717,-0c-0.952,0.184 -1.886,0.462 -2.778,0.824c-0.911,0.369 -1.789,0.831 -2.609,1.372c-0.189,0.124 -0.365,0.27 -0.547,0.404l3.755,3.754c0.437,-0.264 0.89,-0.504 1.362,-0.697c0.58,-0.234 1.188,-0.415 1.809,-0.536c0.612,-0.117 1.24,-0.178 1.867,-0.178c0.626,0 1.253,0.061 1.865,0.178c0.62,0.121 1.229,0.302 1.81,0.537c0.592,0.24 1.162,0.54 1.695,0.892c0.547,0.362 1.064,0.783 1.533,1.252c0.471,0.471 0.892,0.987 1.254,1.533c0.351,0.534 0.652,1.105 0.891,1.697c0.236,0.581 0.415,1.19 0.537,1.808c0.118,0.614 0.178,1.242 0.178,1.867c0,0.626 -0.06,1.254 -0.178,1.867c-0.122,0.618 -0.301,1.226 -0.537,1.809c-0.239,0.591 -0.54,1.16 -0.891,1.695c-0.362,0.547 -0.783,1.063 -1.254,1.533c-0.469,0.471 -0.986,0.891 -1.534,1.253c-0.532,0.352 -1.102,0.652 -1.694,0.892c-0.581,0.235 -1.19,0.415 -1.81,0.537c-1.224,0.237 -2.507,0.237 -3.732,-0c-0.621,-0.122 -1.229,-0.302 -1.809,-0.537c-0.593,-0.24 -1.162,-0.54 -1.695,-0.892c-0.549,-0.362 -1.063,-0.784 -1.534,-1.252l-0,-0.001c-0.47,-0.47 -0.89,-0.986 -1.252,-1.533c-0.352,-0.533 -0.652,-1.104 -0.894,-1.695c-0.235,-0.583 -0.414,-1.191 -0.535,-1.81c-0.118,-0.612 -0.178,-1.239 -0.178,-1.866c-0,-0.627 0.06,-1.255 0.178,-1.868c0.121,-0.617 0.3,-1.226 0.535,-1.807c0.123,-0.296 0.257,-0.587 0.405,-0.87l-3.794,-3.796c-0.024,0.033 -0.049,0.063 -0.071,0.096c-0.542,0.819 -1.004,1.698 -1.374,2.61c-0.362,0.895 -0.639,1.827 -0.821,2.776c-0.183,0.939 -0.275,1.901 -0.275,2.859c-0,0.958 0.092,1.922 0.275,2.858c0.182,0.949 0.459,1.884 0.822,2.779c0.369,0.911 0.831,1.789 1.373,2.609c0.556,0.841 1.201,1.63 1.917,2.346l0.002,0.002c0.716,0.716 1.505,1.361 2.346,1.917c0.82,0.541 1.698,1.003 2.609,1.373c0.892,0.362 1.826,0.638 2.778,0.822c0.939,0.183 1.901,0.275 2.859,0.275c0.957,0 1.921,-0.092 2.858,-0.275c0.951,-0.184 1.885,-0.46 2.777,-0.822c0.912,-0.37 1.79,-0.832 2.609,-1.373c0.841,-0.555 1.631,-1.201 2.349,-1.917c0.717,-0.72 1.363,-1.508 1.917,-2.35c0.542,-0.819 1.004,-1.698 1.373,-2.609c0.364,-0.893 0.64,-1.827 0.824,-2.776c0.181,-0.94 0.274,-1.902 0.274,-2.859c-0,-0.958 -0.093,-1.918 -0.275,-2.859Z" style="fill:#1d1d1d;"/><path id="test" d="M168.11,58.911c-0.372,0.087 -0.677,0.162 -0.943,0.228c-0.725,0.178 -1.139,0.281 -1.855,0.33c-0.046,-0.005 -0.091,-0.008 -0.136,-0.008c-3.153,0 -4.686,-1.568 -4.686,-4.796l0,-10.744l6.175,0l0.793,-4.037l-6.968,-0l0,-5.865l-5.224,0l-0,20.578c-0,6.442 4.702,9.375 9.072,9.375c0.042,0 0.15,-0.011 0.297,-0.032c1.33,-0.023 1.774,-0.135 2.69,-0.366c0.279,-0.071 0.607,-0.155 1.024,-0.25l0.413,-0.096l0,-4.467l-0.652,0.15Zm63.091,0c-0.372,0.087 -0.677,0.162 -0.943,0.228c-0.724,0.178 -1.138,0.281 -1.854,0.33c-0.047,-0.005 -0.093,-0.008 -0.137,-0.008c-3.153,0 -4.685,-1.568 -4.685,-4.796l0,-10.744l6.175,0l0.792,-4.037l-6.967,-0l0,-5.865l-5.224,0l-0,20.578c-0,6.442 4.7,9.375 9.07,9.375c0.043,0 0.152,-0.011 0.299,-0.032c1.329,-0.023 1.774,-0.135 2.688,-0.366c0.28,-0.071 0.608,-0.155 1.026,-0.25l0.413,-0.096l0,-4.467l-0.653,0.15Zm-22.937,-8.696l-3.598,-1.152c-2.408,-0.803 -3.579,-1.753 -3.579,-2.907c0,-1.161 0.826,-2.544 4.756,-2.544c2.499,0 4.982,0.64 6.99,1.802l0.8,0.464l0,-4.929l-0.322,-0.138c-1.009,-0.433 -3.755,-1.436 -7.468,-1.436c-5.784,-0 -9.379,2.635 -9.379,6.877c0,3.086 2.256,5.457 6.514,6.85l3.513,1.204c2.232,0.744 3.145,1.559 3.145,2.811c-0,2.143 -2.638,2.593 -4.851,2.593c-2.575,-0 -5.134,-0.752 -6.848,-2.011l-0.847,-0.624l-0,4.965l0.267,0.155c1.469,0.847 4.18,1.752 7.381,1.752c5.96,0 9.519,-2.642 9.519,-7.069c0,-4.211 -3.418,-5.818 -5.993,-6.663Zm-17.964,-7.372c-1.853,-2.278 -4.607,-3.492 -7.968,-3.512c-0.104,-0.012 -0.213,-0.015 -0.325,-0.009c-6.827,0.425 -11.069,4.95 -11.069,11.81c0,8.49 4.417,12.792 13.128,12.792c2.694,0 6.292,-0.865 6.988,-1.037l0.402,-0.102l0,-4.459l-0.652,0.15c-0.304,0.07 -0.603,0.144 -0.905,0.218c-1.587,0.389 -3.228,0.791 -6.06,0.791c-4.187,0 -6.63,-1.798 -7.404,-5.475l0.008,0c-0.053,-0.363 -0.367,-2.597 -0.231,-3.862c0.001,-0.015 0.005,-0.028 0.01,-0.041l-0.016,-0c0.304,-3.961 2.823,-6.403 6.494,-6.378c3.088,0.225 5.179,2.707 5.363,6.378l-7.938,-0l0.047,3.903l12.358,0l0.041,-0.487c0.089,-1.003 0.105,-2.092 0.105,-3.63c-0,-2.621 -0.867,-5.192 -2.376,-7.05Z" style="fill:#1d1d1d;"/></g><circle id="plate" cx="220.004" cy="220" r="145" style="fill:#263340;"/><path d="M220.004,75c80.028,-0 145,64.972 145,145c0,80.028 -64.972,145 -145,145c-80.028,-0 -145,-64.972 -145,-145c0,-80.028 64.972,-145 145,-145Zm0,2.083c78.878,0 142.917,64.039 142.917,142.917c-0,78.878 -64.039,142.917 -142.917,142.917c-78.878,-0 -142.917,-64.039 -142.917,-142.917c0,-78.878 64.039,-142.917 142.917,-142.917Z" style="fill:#1d1d1d;"/><path id="Coverup1" serif:id="Coverup" d="M395.072,166.582l0,-53.477l-40.24,0l0,53.477l40.24,0Z" style="fill:#326dd1;"/><path d="M379.137,154.212l-0,0.007c9.867,-0.227 14.867,-5.69 14.867,-16.22c0,-10.782 -5.213,-16.259 -15.495,-16.259c-10.298,-0 -15.518,5.446 -15.518,16.231c0.007,2.158 0.225,4.104 0.649,5.831l7.118,0c-0.637,-1.568 -0.952,-3.538 -0.952,-5.912c0,-6.98 2.849,-10.372 8.708,-10.372c5.861,-0 8.707,3.392 8.707,10.372c0,7.137 -2.846,10.609 -8.707,10.609c-0.141,-0 -21.398,0.027 -21.562,0.02l-0,5.741c1.764,-0.004 22.185,-0.048 22.185,-0.048Z" style="fill:#1d1d1d;fill-rule:nonzero;"/><path id="Coverup2" serif:id="Coverup" d="M84.072,166.582l0,-53.477l-40.24,0l0,53.477l40.24,0Z" style="fill:#326dd1;"/><path d="M66.663,156.212l0,0.007c9.868,-0.227 14.867,-5.69 14.867,-16.22c0,-10.782 -5.212,-16.259 -15.494,-16.259c-10.299,-0 -15.519,5.446 -15.519,16.231c0.007,2.158 0.225,4.104 0.649,5.831l7.119,0c-0.637,-1.568 -0.952,-3.538 -0.952,-5.912c-0,-6.98 2.848,-10.372 8.707,-10.372c5.861,-0 8.708,3.392 8.708,10.372c-0,7.137 -2.847,10.609 -8.708,10.609c-0.141,-0 -21.398,0.027 -21.562,0.02l-0,5.741c1.764,-0.004 22.185,-0.048 22.185,-0.048" style="fill:#1d1d1d;fill-rule:nonzero;"/></g><g transform="matrix(0.878784,0,0,0.878784,27.7009,20.8349)"><g transform="matrix(1.13794,0,0,1.13794,-0.753933,-1.83098)"><path d="M338.254,171.695c2.044,10.032 2.902,18.478 2.852,29.079l-0,0c0.041,9.691 -0.675,17.427 -2.389,26.648c-1.629,9.188 -3.638,16.432 -6.872,25.004c-3.153,8.572 -6.343,15.257 -10.952,23.051c-4.539,7.817 -8.799,13.831 -14.635,20.696c-5.779,6.907 -10.986,12.114 -17.893,17.893c-6.865,5.836 -12.879,10.096 -20.697,14.636c-7.793,4.609 -14.478,7.798 -23.05,10.952c-8.573,3.234 -15.816,5.242 -25.004,6.871c-9.221,1.714 -16.957,2.431 -26.648,2.389l-0,39.36l-0,-39.36c-9.691,0.042 -17.427,-0.675 -26.648,-2.389c-9.188,-1.629 -16.432,-3.637 -25.004,-6.871c-8.572,-3.154 -15.257,-6.343 -23.051,-10.952c-7.817,-4.54 -13.831,-8.8 -20.696,-14.636c-6.907,-5.779 -12.114,-10.986 -17.893,-17.893c-5.836,-6.865 -10.096,-12.879 -14.636,-20.696c-4.609,-7.794 -7.798,-14.479 -10.952,-23.051c-3.234,-8.572 -5.242,-15.816 -6.871,-25.004c-1.714,-9.221 -2.431,-16.957 -2.389,-26.648l-39.36,0l39.36,0c-0.043,-9.879 0.701,-17.763 2.482,-27.153l-49.439,-9.162c-2.14,11.612 -3.311,24.081 -3.323,36.315l10.92,0l-10.92,0c0.011,12 1.138,24.235 3.199,35.638c2.085,11.412 5.276,22.943 9.227,33.572c3.972,10.63 9.034,21.25 14.687,30.916c5.673,9.659 12.409,19.172 19.58,27.69c7.187,8.506 15.405,16.724 23.911,23.911c8.518,7.171 18.031,13.907 27.69,19.58c9.666,5.653 20.286,10.715 30.916,14.687c10.629,3.951 22.16,7.142 33.572,9.227c11.403,2.061 23.638,3.188 35.638,3.199l-0,-10.92l-0,10.92c12,-0.011 24.234,-1.138 35.637,-3.199c11.412,-2.085 22.944,-5.276 33.573,-9.227c10.63,-3.972 21.249,-9.034 30.915,-14.687c9.66,-5.673 19.173,-12.409 27.691,-19.58c8.506,-7.187 16.724,-15.405 23.911,-23.911c7.171,-8.518 13.907,-18.031 19.579,-27.69c5.654,-9.666 10.715,-20.286 14.688,-30.916c3.95,-10.629 7.142,-22.16 9.227,-33.572c2.061,-11.403 3.187,-23.638 3.199,-35.638l-0,0c-0.014,-13.131 -1.362,-26.493 -3.82,-38.899l-49.312,9.82Z" style="fill:#326dd1;"/></g><g transform="matrix(1.13794,0,0,1.13794,-0.753933,-1.83098)"><g transform="matrix(-0.0653161,0.997865,-0.997865,-0.0653161,182.994,181.138)"><g transform="matrix(40,0,0,40,6.66226,176.273)"><path d="M0.349,0.012c-0.041,-0 -0.08,-0.007 -0.117,-0.021c-0.037,-0.015 -0.069,-0.036 -0.097,-0.064c-0.027,-0.028 -0.049,-0.063 -0.065,-0.104c-0.016,-0.042 -0.024,-0.09 -0.024,-0.145c-0,-0.054 0.008,-0.102 0.025,-0.145c0.017,-0.042 0.039,-0.078 0.067,-0.107c0.028,-0.029 0.061,-0.052 0.098,-0.067c0.037,-0.015 0.077,-0.023 0.118,-0.023c0.042,0 0.08,0.009 0.113,0.026c0.033,0.016 0.061,0.036 0.083,0.059l-0.078,0.094c-0.017,-0.015 -0.034,-0.028 -0.053,-0.037c-0.018,-0.01 -0.039,-0.015 -0.062,-0.015c-0.022,0 -0.043,0.005 -0.063,0.015c-0.019,0.009 -0.036,0.023 -0.051,0.041c-0.014,0.018 -0.025,0.04 -0.034,0.066c-0.008,0.026 -0.012,0.055 -0.012,0.088c-0,0.067 0.014,0.12 0.043,0.157c0.029,0.037 0.067,0.055 0.115,0.055c0.027,0 0.05,-0.006 0.071,-0.017c0.021,-0.012 0.04,-0.027 0.056,-0.044l0.078,0.092c-0.055,0.064 -0.125,0.096 -0.211,0.096Z" style="fill:#fff;fill-rule:nonzero;"/></g></g><g transform="matrix(0.0641315,0.997941,-0.997941,0.0641315,205.92,183.504)"><g transform="matrix(40,0,0,40,5.12245,201.541)"><path d="M0.077,-0l0,-0.652l0.408,0l-0,0.124l-0.261,0l-0,0.131l0.222,0l-0,0.123l-0.222,0l-0,0.15l0.271,0l-0,0.124l-0.418,0Z" style="fill:#fff;fill-rule:nonzero;"/></g></g><g transform="matrix(0.201069,0.979577,-0.979577,0.201069,226.109,173.662)"><g transform="matrix(40,0,0,40,6.5903,225.448)"><path d="M0.077,-0l0,-0.652l0.235,0c0.035,0 0.067,0.003 0.097,0.01c0.031,0.007 0.057,0.018 0.08,0.033c0.023,0.016 0.041,0.037 0.054,0.063c0.013,0.026 0.02,0.058 0.02,0.097c-0,0.048 -0.011,0.088 -0.032,0.119c-0.021,0.031 -0.049,0.054 -0.084,0.069l0.148,0.261l-0.165,0l-0.125,-0.235l-0.081,0l0,0.235l-0.147,0Zm0.147,-0.352l0.076,0c0.039,0 0.068,-0.008 0.089,-0.024c0.02,-0.017 0.03,-0.041 0.03,-0.073c0,-0.032 -0.01,-0.054 -0.03,-0.067c-0.021,-0.013 -0.05,-0.019 -0.089,-0.019l-0.076,0l0,0.183Z" style="fill:#fff;fill-rule:nonzero;"/></g></g><g transform="matrix(0.322984,0.946405,-0.946405,0.322984,245.365,158.539)"><g transform="matrix(40,0,0,40,11.8715,250.768)"><path d="M0.204,-0l-0,-0.528l-0.179,0l-0,-0.124l0.506,0l0,0.124l-0.179,0l-0,0.528l-0.148,-0Z" style="fill:#fff;fill-rule:nonzero;"/></g></g><g transform="matrix(0.418103,0.908399,-0.908399,0.418103,260.136,140.981)"><g transform="matrix(40,0,0,40,20.0253,273.54)"><rect x="0.077" y="-0.652" width="0.147" height="0.652" style="fill:#fff;fill-rule:nonzero;"/></g></g><g transform="matrix(0.509744,0.860326,-0.860326,0.509744,259.058,118.248)"><g transform="matrix(40,0,0,40,25.7753,286.428)"><path d="M0.077,-0l0,-0.652l0.411,0l-0,0.124l-0.264,0l-0,0.151l0.226,0l-0,0.124l-0.226,0l-0,0.253l-0.147,-0Z" style="fill:#fff;fill-rule:nonzero;"/></g></g><g transform="matrix(0.588165,0.808741,-0.808741,0.588165,263.012,95.5483)"><g transform="matrix(40,0,0,40,37.6895,306.019)"><rect x="0.077" y="-0.652" width="0.147" height="0.652" style="fill:#fff;fill-rule:nonzero;"/></g></g><g transform="matrix(0.668479,0.743731,-0.743731,0.668479,251.353,71.1708)"><g transform="matrix(40,0,0,40,45.8445,317.527)"><path d="M0.077,-0l0,-0.652l0.408,0l-0,0.124l-0.261,0l-0,0.131l0.222,0l-0,0.123l-0.222,0l-0,0.15l0.271,0l-0,0.124l-0.418,0Z" style="fill:#fff;fill-rule:nonzero;"/></g></g><g transform="matrix(0.763324,0.646016,-0.646016,0.763324,231.27,39.451)"><g transform="matrix(40,0,0,40,61.7935,335.355)"><path d="M0.077,-0l0,-0.652l0.184,0c0.05,0 0.095,0.006 0.135,0.019c0.04,0.013 0.074,0.032 0.103,0.058c0.029,0.027 0.051,0.06 0.066,0.101c0.015,0.041 0.023,0.089 0.023,0.145c0,0.056 -0.008,0.105 -0.023,0.146c-0.015,0.041 -0.037,0.075 -0.065,0.102c-0.028,0.027 -0.061,0.048 -0.1,0.061c-0.039,0.013 -0.083,0.02 -0.131,0.02l-0.192,-0Zm0.147,-0.119l0.028,-0c0.028,-0 0.053,-0.004 0.076,-0.011c0.023,-0.007 0.042,-0.019 0.058,-0.036c0.016,-0.016 0.029,-0.037 0.038,-0.064c0.009,-0.027 0.013,-0.06 0.013,-0.099c0,-0.039 -0.004,-0.071 -0.013,-0.098c-0.009,-0.026 -0.022,-0.047 -0.038,-0.063c-0.016,-0.015 -0.035,-0.026 -0.058,-0.033c-0.023,-0.007 -0.048,-0.01 -0.076,-0.01l-0.028,-0l0,0.414Z" style="fill:#fff;fill-rule:nonzero;"/></g></g><g transform="matrix(0.871096,0.491112,-0.491112,0.871096,187.861,1.477)"><g transform="matrix(40,0,0,40,91.1167,358.605)"><path d="M0.077,-0l0,-0.652l0.408,0l-0,0.124l-0.261,0l-0,0.131l0.222,0l-0,0.123l-0.222,0l-0,0.15l0.271,0l-0,0.124l-0.418,0Z" style="fill:#fff;fill-rule:nonzero;"/></g></g><g transform="matrix(0.926483,0.376338,-0.376338,0.926483,147.593,-14.9305)"><g transform="matrix(40,0,0,40,112.011,370.301)"><path d="M0.011,-0l0.181,-0.335l-0.17,-0.317l0.164,0l0.057,0.123c0.007,0.015 0.015,0.032 0.022,0.049c0.007,0.017 0.016,0.035 0.025,0.056l0.004,0c0.007,-0.021 0.014,-0.039 0.021,-0.056c0.007,-0.017 0.014,-0.034 0.021,-0.049l0.052,-0.123l0.157,0l-0.169,0.324l0.18,0.328l-0.164,-0l-0.065,-0.133c-0.008,-0.017 -0.016,-0.035 -0.024,-0.051c-0.007,-0.018 -0.016,-0.036 -0.025,-0.056l-0.004,0c-0.007,0.02 -0.015,0.038 -0.022,0.055c-0.007,0.017 -0.015,0.035 -0.022,0.052l-0.061,0.133l-0.158,-0Z" style="fill:#fff;fill-rule:nonzero;"/></g></g><g transform="matrix(0.97003,0.242984,-0.242984,0.97003,96.2754,-21.4189)"><g transform="matrix(40,0,0,40,134.966,379.575)"><path d="M0.077,-0l0,-0.652l0.224,0c0.036,0 0.07,0.004 0.101,0.011c0.031,0.007 0.059,0.018 0.082,0.034c0.023,0.017 0.042,0.038 0.055,0.066c0.014,0.026 0.021,0.06 0.021,0.099c0,0.038 -0.007,0.071 -0.021,0.099c-0.013,0.028 -0.032,0.051 -0.055,0.069c-0.023,0.018 -0.05,0.031 -0.081,0.04c-0.031,0.009 -0.063,0.013 -0.098,0.013l-0.081,-0l-0,0.221l-0.147,-0Zm0.147,-0.338l0.072,-0c0.08,-0 0.12,-0.035 0.12,-0.104c-0,-0.034 -0.011,-0.058 -0.032,-0.072c-0.021,-0.014 -0.052,-0.021 -0.092,-0.021l-0.068,0l-0,0.197Z" style="fill:#fff;fill-rule:nonzero;"/></g></g><g transform="matrix(0.993332,0.115293,-0.115293,0.993332,45.5388,-15.8802)"><g transform="matrix(40,0,0,40,160.049,385.728)"><path d="M0.077,-0l0,-0.652l0.147,0l0,0.528l0.258,0l0,0.124l-0.405,-0Z" style="fill:#fff;fill-rule:nonzero;"/></g></g><g transform="matrix(0.999947,-0.0103062,0.0103062,0.999947,-3.99334,1.88867)"><g transform="matrix(40,0,0,40,181.255,388.405)"><path d="M0.342,0.012c-0.044,-0 -0.084,-0.008 -0.121,-0.024c-0.036,-0.015 -0.067,-0.038 -0.093,-0.067c-0.026,-0.029 -0.046,-0.065 -0.061,-0.107c-0.014,-0.042 -0.021,-0.09 -0.021,-0.143c-0,-0.053 0.007,-0.101 0.021,-0.142c0.015,-0.042 0.035,-0.077 0.061,-0.105c0.026,-0.029 0.057,-0.05 0.093,-0.065c0.037,-0.015 0.077,-0.023 0.121,-0.023c0.044,0 0.084,0.008 0.121,0.023c0.036,0.015 0.067,0.036 0.093,0.065c0.026,0.029 0.046,0.064 0.061,0.106c0.014,0.041 0.021,0.088 0.021,0.141c0,0.053 -0.007,0.101 -0.021,0.143c-0.015,0.042 -0.035,0.078 -0.061,0.107c-0.026,0.029 -0.057,0.052 -0.094,0.068c-0.036,0.015 -0.076,0.023 -0.12,0.023Zm-0,-0.127c0.045,0 0.08,-0.019 0.106,-0.057c0.026,-0.039 0.039,-0.091 0.039,-0.157c-0,-0.065 -0.013,-0.116 -0.039,-0.153c-0.026,-0.037 -0.061,-0.055 -0.106,-0.055c-0.045,0 -0.08,0.018 -0.106,0.055c-0.026,0.037 -0.039,0.088 -0.039,0.153c-0,0.066 0.013,0.118 0.039,0.157c0.026,0.038 0.061,0.057 0.106,0.057Z" style="fill:#fff;fill-rule:nonzero;"/></g></g><g transform="matrix(0.986454,-0.164036,0.164036,0.986454,-60.7818,39.8073)"><g transform="matrix(40,0,0,40,210.641,387.935)"><path d="M0.077,-0l0,-0.652l0.235,0c0.035,0 0.067,0.003 0.097,0.01c0.031,0.007 0.057,0.018 0.08,0.033c0.023,0.016 0.041,0.037 0.054,0.063c0.013,0.026 0.02,0.058 0.02,0.097c-0,0.048 -0.011,0.088 -0.032,0.119c-0.021,0.031 -0.049,0.054 -0.084,0.069l0.148,0.261l-0.165,0l-0.125,-0.235l-0.081,0l0,0.235l-0.147,0Zm0.147,-0.352l0.076,0c0.039,0 0.068,-0.008 0.089,-0.024c0.02,-0.017 0.03,-0.041 0.03,-0.073c0,-0.032 -0.01,-0.054 -0.03,-0.067c-0.021,-0.013 -0.05,-0.019 -0.089,-0.019l-0.076,0l0,0.183Z" style="fill:#fff;fill-rule:nonzero;"/></g></g><g transform="matrix(0.956853,-0.290573,0.290573,0.956853,-101.245,85.2673)"><g transform="matrix(40,0,0,40,236.491,383.55)"><path d="M0.23,-0.33l-0.016,0.06l0.139,0l-0.015,-0.06c-0.009,-0.033 -0.018,-0.067 -0.027,-0.104c-0.009,-0.037 -0.017,-0.072 -0.026,-0.106l-0.004,0c-0.008,0.035 -0.016,0.07 -0.024,0.107c-0.009,0.036 -0.018,0.07 -0.027,0.103Zm-0.236,0.33l0.204,-0.652l0.177,0l0.204,0.652l-0.156,0l-0.04,-0.155l-0.199,0l-0.04,0.155l-0.15,0Z" style="fill:#fff;fill-rule:nonzero;"/></g></g><g transform="matrix(0.916676,-0.399632,0.399632,0.916676,-129.274,134.358)"><g transform="matrix(40,0,0,40,257.561,377.185)"><path d="M0.204,-0l-0,-0.528l-0.179,0l-0,-0.124l0.506,0l0,0.124l-0.179,0l-0,0.528l-0.148,-0Z" style="fill:#fff;fill-rule:nonzero;"/></g></g><g transform="matrix(0.85333,-0.521371,0.521371,0.85333,-150.979,199.362)"><g transform="matrix(40,0,0,40,278.849,368.025)"><path d="M0.342,0.012c-0.044,-0 -0.084,-0.008 -0.121,-0.024c-0.036,-0.015 -0.067,-0.038 -0.093,-0.067c-0.026,-0.029 -0.046,-0.065 -0.061,-0.107c-0.014,-0.042 -0.021,-0.09 -0.021,-0.143c-0,-0.053 0.007,-0.101 0.021,-0.142c0.015,-0.042 0.035,-0.077 0.061,-0.105c0.026,-0.029 0.057,-0.05 0.093,-0.065c0.037,-0.015 0.077,-0.023 0.121,-0.023c0.044,0 0.084,0.008 0.121,0.023c0.036,0.015 0.067,0.036 0.093,0.065c0.026,0.029 0.046,0.064 0.061,0.106c0.014,0.041 0.021,0.088 0.021,0.141c0,0.053 -0.007,0.101 -0.021,0.143c-0.015,0.042 -0.035,0.078 -0.061,0.107c-0.026,0.029 -0.057,0.052 -0.094,0.068c-0.036,0.015 -0.076,0.023 -0.12,0.023Zm-0,-0.127c0.045,0 0.08,-0.019 0.106,-0.057c0.026,-0.039 0.039,-0.091 0.039,-0.157c-0,-0.065 -0.013,-0.116 -0.039,-0.153c-0.026,-0.037 -0.061,-0.055 -0.106,-0.055c-0.045,0 -0.08,0.018 -0.106,0.055c-0.026,0.037 -0.039,0.088 -0.039,0.153c-0,0.066 0.013,0.118 0.039,0.157c0.026,0.038 0.061,0.057 0.106,0.057Z" style="fill:#fff;fill-rule:nonzero;"/></g></g><g transform="matrix(0.762842,-0.646585,0.646585,0.762842,-155.893,280.068)"><g transform="matrix(40,0,0,40,303.841,352.546)"><path d="M0.077,-0l0,-0.652l0.235,0c0.035,0 0.067,0.003 0.097,0.01c0.031,0.007 0.057,0.018 0.08,0.033c0.023,0.016 0.041,0.037 0.054,0.063c0.013,0.026 0.02,0.058 0.02,0.097c-0,0.048 -0.011,0.088 -0.032,0.119c-0.021,0.031 -0.049,0.054 -0.084,0.069l0.148,0.261l-0.165,0l-0.125,-0.235l-0.081,0l0,0.235l-0.147,0Zm0.147,-0.352l0.076,0c0.039,0 0.068,-0.008 0.089,-0.024c0.02,-0.017 0.03,-0.041 0.03,-0.073c0,-0.032 -0.01,-0.054 -0.03,-0.067c-0.021,-0.013 -0.05,-0.019 -0.089,-0.019l-0.076,0l0,0.183Z" style="fill:#fff;fill-rule:nonzero;"/></g></g><g transform="matrix(0.678663,-0.73445,0.73445,0.678663,-142.56,345.503)"><g transform="matrix(40,0,0,40,323.561,335.67)"><path d="M0.189,-0l0,-0.232l-0.197,-0.42l0.158,0l0.058,0.15c0.009,0.025 0.018,0.048 0.026,0.072c0.009,0.023 0.018,0.047 0.027,0.072l0.004,0c0.009,-0.025 0.018,-0.049 0.027,-0.073c0.009,-0.023 0.019,-0.046 0.028,-0.071l0.059,-0.15l0.154,0l-0.197,0.42l0,0.232l-0.147,0Z" style="fill:#fff;fill-rule:nonzero;"/></g></g><g transform="matrix(0.537652,-0.843167,0.843167,0.537652,-102.424,434.74)"><g transform="matrix(40,0,0,40,345.197,310.764)"><path d="M0.204,-0l-0,-0.528l-0.179,0l-0,-0.124l0.506,0l0,0.124l-0.179,0l-0,0.528l-0.148,-0Z" style="fill:#fff;fill-rule:nonzero;"/></g></g><g transform="matrix(0.422602,-0.906316,0.906316,0.422602,-56.2231,492.182)"><g transform="matrix(40,0,0,40,358.166,290.216)"><path d="M0.077,-0l0,-0.652l0.408,0l-0,0.124l-0.261,0l-0,0.131l0.222,0l-0,0.123l-0.222,0l-0,0.15l0.271,0l-0,0.124l-0.418,0Z" style="fill:#fff;fill-rule:nonzero;"/></g></g><g transform="matrix(0.304628,-0.952471,0.952471,0.304628,0.30989,537.403)"><g transform="matrix(40,0,0,40,368.203,268.489)"><path d="M0.276,0.012c-0.043,-0 -0.085,-0.008 -0.128,-0.024c-0.042,-0.015 -0.08,-0.039 -0.113,-0.07l0.084,-0.101c0.023,0.02 0.049,0.036 0.077,0.049c0.029,0.013 0.057,0.019 0.084,0.019c0.031,0 0.053,-0.006 0.068,-0.017c0.015,-0.011 0.023,-0.027 0.023,-0.046c-0,-0.01 -0.002,-0.019 -0.007,-0.026c-0.004,-0.007 -0.01,-0.014 -0.019,-0.02c-0.008,-0.005 -0.018,-0.011 -0.03,-0.016c-0.011,-0.005 -0.024,-0.01 -0.038,-0.016l-0.085,-0.036c-0.017,-0.007 -0.033,-0.015 -0.049,-0.026c-0.015,-0.011 -0.029,-0.023 -0.042,-0.037c-0.012,-0.015 -0.022,-0.031 -0.029,-0.05c-0.007,-0.019 -0.011,-0.041 -0.011,-0.065c-0,-0.027 0.006,-0.052 0.017,-0.075c0.011,-0.024 0.027,-0.045 0.048,-0.063c0.021,-0.017 0.045,-0.031 0.073,-0.041c0.029,-0.01 0.06,-0.015 0.094,-0.015c0.038,0 0.075,0.007 0.112,0.022c0.037,0.015 0.07,0.036 0.098,0.064l-0.075,0.093c-0.021,-0.017 -0.043,-0.029 -0.064,-0.038c-0.021,-0.009 -0.045,-0.014 -0.071,-0.014c-0.025,0 -0.045,0.005 -0.06,0.016c-0.015,0.01 -0.023,0.024 -0.023,0.043c0,0.01 0.003,0.019 0.008,0.026c0.005,0.007 0.012,0.013 0.02,0.019c0.01,0.005 0.02,0.011 0.032,0.016c0.012,0.005 0.025,0.01 0.039,0.016l0.084,0.034c0.04,0.016 0.072,0.038 0.094,0.066c0.023,0.028 0.035,0.065 0.035,0.111c0,0.027 -0.006,0.053 -0.017,0.078c-0.011,0.024 -0.027,0.045 -0.047,0.064c-0.022,0.018 -0.047,0.033 -0.078,0.044c-0.031,0.01 -0.065,0.016 -0.104,0.016Z" style="fill:#fff;fill-rule:nonzero;"/></g></g><g transform="matrix(0.182601,-0.983187,0.983187,0.182601,64.788,570.137)"><g transform="matrix(40,0,0,40,375.281,246.104)"><path d="M0.204,-0l-0,-0.528l-0.179,0l-0,-0.124l0.506,0l0,0.124l-0.179,0l-0,0.528l-0.148,-0Z" style="fill:#fff;fill-rule:nonzero;"/></g></g><g transform="matrix(0.0526724,-0.998612,0.998612,0.0526724,137.699,589.583)"><g transform="matrix(40,0,0,40,379.6,222.215)"><path d="M0.077,-0l0,-0.652l0.408,0l-0,0.124l-0.261,0l-0,0.131l0.222,0l-0,0.123l-0.222,0l-0,0.15l0.271,0l-0,0.124l-0.418,0Z" style="fill:#fff;fill-rule:nonzero;"/></g></g><g transform="matrix(-0.0838536,-0.996478,0.996478,-0.0838536,215.303,594.474)"><g transform="matrix(40,0,0,40,380.927,198.264)"><path d="M0.077,-0l0,-0.652l0.235,0c0.035,0 0.067,0.003 0.097,0.01c0.031,0.007 0.057,0.018 0.08,0.033c0.023,0.016 0.041,0.037 0.054,0.063c0.013,0.026 0.02,0.058 0.02,0.097c-0,0.048 -0.011,0.088 -0.032,0.119c-0.021,0.031 -0.049,0.054 -0.084,0.069l0.148,0.261l-0.165,0l-0.125,-0.235l-0.081,0l0,0.235l-0.147,0Zm0.147,-0.352l0.076,0c0.039,0 0.068,-0.008 0.089,-0.024c0.02,-0.017 0.03,-0.041 0.03,-0.073c0,-0.032 -0.01,-0.054 -0.03,-0.067c-0.021,-0.013 -0.05,-0.019 -0.089,-0.019l-0.076,0l0,0.183Z" style="fill:#fff;fill-rule:nonzero;"/></g></g></g></g><path id="Shadow" d="M360.903,254.2c-12.305,50.933 -51.557,91.399 -101.809,105.416l-85.957,-86.256l60.635,-128.358l17.972,0l109.159,109.198Z" style="fill:#1d1d1d;"/><path d="M248.289,145l-71.052,0c-3.304,0 -5.983,2.679 -5.983,5.983c0,21.726 0,96.308 0,118.034c0,1.587 0.631,3.108 1.753,4.231c1.122,1.122 2.644,1.752 4.23,1.752c17.441,0 68.094,0 85.534,0c1.587,-0 3.109,-0.63 4.231,-1.752c1.122,-1.123 1.752,-2.644 1.752,-4.231l0,-102.493c-0.672,0.311 -1.411,0.476 -2.166,0.476c-2.324,0 -6.118,0 -9.351,0c-2.382,-0 -4.667,-0.946 -6.352,-2.631c-1.684,-1.685 -2.631,-3.97 -2.631,-6.352l0,-12.529c0,-0.164 0.012,-0.327 0.035,-0.488Zm20.465,16.832l-17.011,-16.832l-0.001,0c-0.129,-0 -0.253,0.051 -0.345,0.143c-0.091,0.091 -0.143,0.216 -0.143,0.345c0,1.743 0,7.81 0,12.529c0,1.587 0.631,3.108 1.753,4.231c1.122,1.122 2.644,1.752 4.23,1.752c3.233,0 7.027,0 9.351,0c0.575,0 1.126,-0.228 1.532,-0.634c0.406,-0.407 0.634,-0.958 0.634,-1.532l0,-0.002Z" style="fill:#fff;"/><path d="M246.159,235.5c0,-1.38 -1.12,-2.5 -2.5,-2.5l-47.155,0c-1.38,0 -2.5,1.12 -2.5,2.5c0,1.38 1.12,2.5 2.5,2.5l47.155,0c1.38,0 2.5,-1.12 2.5,-2.5Z" style="fill:#1d1d1d;"/><path d="M246.159,245.5c0,-1.38 -1.12,-2.5 -2.5,-2.5l-47.155,0c-1.38,0 -2.5,1.12 -2.5,2.5c0,1.38 1.12,2.5 2.5,2.5l47.155,0c1.38,0 2.5,-1.12 2.5,-2.5Z" style="fill:#1d1d1d;"/><path d="M246.159,255.5c0,-1.38 -1.12,-2.5 -2.5,-2.5l-47.155,0c-1.38,0 -2.5,1.12 -2.5,2.5c0,1.38 1.12,2.5 2.5,2.5l47.155,0c1.38,0 2.5,-1.12 2.5,-2.5Z" style="fill:#1d1d1d;"/><path d="M284.209,285.664l4.82,17.987l-6.446,-3.509l-3.828,6.262l-4.291,-16.014l2.634,-3.094l5.614,3.453l1.497,-5.085Zm-28.29,-0.035l-5.13,19.145l6.446,-3.509l3.828,6.262l4.605,-17.183l-2.644,-3.106l-5.614,3.453l-1.491,-5.062Z" style="fill:#fff;"/><path d="M282.716,288.552l-5.612,-1.672l-2.513,5.29l-4.447,-3.811l-4.448,3.811l-2.513,-5.29l-5.612,1.672l-0.144,-5.855l-5.808,-0.755l2.25,-5.407l-4.998,-3.052l4.254,-4.025l-3.325,-4.821l5.524,-1.946l-1.076,-5.757l5.838,0.469l1.358,-5.697l5.142,2.803l3.558,-4.652l3.557,4.652l5.143,-2.803l1.357,5.697l5.838,-0.469l-1.076,5.757l5.524,1.946l-3.325,4.821l4.254,4.025l-4.998,3.052l2.25,5.407l-5.808,0.755l-0.144,5.855Z" style="fill:#fff;"/><path d="M281.574,292.385l5.013,1.494l0.188,-7.657c-0,-0 7.595,-0.988 7.595,-0.988l-2.942,-7.071c-0,-0 6.536,-3.992 6.536,-3.992l-5.564,-5.263c0,-0 4.349,-6.306 4.349,-6.306l-7.224,-2.545c-0,0 1.407,-7.529 1.407,-7.529l-7.634,0.614c-0,-0 -1.776,-7.451 -1.776,-7.451l-6.726,3.666c0,-0 -4.652,-6.084 -4.652,-6.084l-4.653,6.084c-0,-0 -6.726,-3.666 -6.726,-3.666l-1.776,7.451c0,-0 -7.634,-0.614 -7.634,-0.614l1.407,7.529c0,0 -7.224,2.545 -7.224,2.545l4.349,6.306c-0,-0 -5.564,5.263 -5.564,5.263l6.536,3.992c0,-0 -2.942,7.071 -2.942,7.071l7.595,0.988c0,-0 0.188,7.657 0.188,7.657l7.341,-2.187c-0,-0 3.286,6.918 3.286,6.918l5.817,-4.984c-0.001,0 5.816,4.984 5.816,4.984l3.286,-6.918c0,-0 2.328,0.693 2.328,0.693Zm1.142,-3.833l-5.612,-1.672l-2.513,5.29l-4.447,-3.811l-4.448,3.811l-2.513,-5.29l-5.612,1.672l-0.144,-5.855l-5.808,-0.755l2.25,-5.407l-4.998,-3.052l4.254,-4.025l-3.325,-4.821l5.524,-1.946l-1.076,-5.757l5.838,0.469l1.358,-5.697l5.142,2.803l3.558,-4.652l3.557,4.652l5.143,-2.803l1.357,5.697l5.838,-0.469l-1.076,5.757l5.524,1.946l-3.325,4.821l4.254,4.025l-4.998,3.052l2.25,5.407l-5.808,0.755l-0.144,5.855Z" style="fill:#1d1d1d;"/><path d="M270.767,279.257l-0,0.003c4.97,-0.114 7.488,-2.866 7.488,-8.17c0,-5.431 -2.625,-8.189 -7.804,-8.189c-5.187,-0 -7.816,2.743 -7.816,8.175c0.003,1.088 0.113,2.067 0.326,2.937l3.586,0c-0.321,-0.789 -0.48,-1.782 -0.48,-2.977c0,-3.516 1.435,-5.225 4.386,-5.225c2.952,0 4.386,1.709 4.386,5.225c-0,3.595 -1.434,5.343 -4.386,5.343c-0.071,0 -10.778,0.014 -10.861,0.011l0,2.891c0.889,-0.002 11.175,-0.024 11.175,-0.024" style="fill:#1d1d1d;fill-rule:nonzero;"/><path d="M245.004,169l-40,0c-0.552,0 -1,0.448 -1,1l0,40c0,0.552 0.448,1 1,1l28.75,-0c0.552,-0 1,-0.448 1,-1l0,-2.5c0,-0.552 -0.448,-1 -1,-1l-25.25,0l0,-33l33,-0l0,43l-43,0l0,-46.5c0,-0.552 -0.448,-1 -1,-1l-2.5,0c-0.552,0 -1,0.448 -1,1l0,50c0,0.552 0.448,1 1,1l50,-0c0.552,0 1,-0.448 1,-1l0,-50c0,-0.552 -0.448,-1 -1,-1Z" style="fill:#1d1d1d;"/></g></svg>