<?xml version="1.0" encoding="UTF-8" standalone="no"?><!DOCTYPE svg PUBLIC "-//W3C//DTD SVG 1.1//EN" "http://www.w3.org/Graphics/SVG/1.1/DTD/svg11.dtd"><svg width="100%" height="100%" viewBox="0 0 440 440" version="1.1" xmlns="http://www.w3.org/2000/svg" xmlns:xlink="http://www.w3.org/1999/xlink" xml:space="preserve" xmlns:serif="http://www.serif.com/" style="fill-rule:evenodd;clip-rule:evenodd;stroke-linecap:round;stroke-linejoin:round;stroke-miterlimit:1.5;"><rect id="testIO-testerbadge-cybersecurity" x="0.004" y="0.002" width="440" height="440" style="fill:none;"/><clipPath id="_clip1"><rect x="0.004" y="0.002" width="440" height="440"/></clipPath><g clip-path="url(#_clip1)"><g id="Badge"><path d="M220.003,427.627l-28.964,12.378l-24.772,-19.456l-31.179,4.461l-18.895,-25.198l-31.274,-3.764l-11.728,-29.233l-29.23,-11.73l-3.767,-31.271l-25.195,-18.896l4.456,-31.178l-19.451,-24.774l12.378,-28.963l-12.378,-28.964l19.451,-24.774l-4.456,-31.179l25.195,-18.895l3.767,-31.271l29.23,-11.728l11.728,-29.233l31.274,-3.764l18.895,-25.2l31.179,4.458l24.772,-19.451l28.964,12.376l28.964,-12.376l24.775,19.451l31.178,-4.458l18.896,25.2l31.273,3.764l11.726,29.233l29.232,11.728l3.767,31.271l25.195,18.895l-4.456,31.179l19.451,24.774l-12.378,28.964l12.378,28.963l-19.451,24.774l4.456,31.178l-25.195,18.896l-3.767,31.271l-29.232,11.73l-11.726,29.233l-31.273,3.764l-18.896,25.198l-31.178,-4.461l-24.775,19.456l-28.964,-12.378Z" style="fill:#326dd1;fill-rule:nonzero;"/><path d="M220.003,427.627l-28.964,12.378l-24.772,-19.456l-31.179,4.461l-18.895,-25.198l-31.274,-3.764l-11.728,-29.233l-29.23,-11.73l-3.767,-31.271l-25.195,-18.896l4.456,-31.178l-19.451,-24.774l12.378,-28.963l-12.378,-28.964l19.451,-24.774l-4.456,-31.179l25.195,-18.895l3.767,-31.271l29.23,-11.728l11.728,-29.233l31.274,-3.764l18.895,-25.2l31.179,4.458l24.772,-19.451l28.964,12.376l28.964,-12.376l24.775,19.451l31.178,-4.458l18.896,25.2l31.273,3.764l11.726,29.233l29.232,11.728l3.767,31.271l25.195,18.895l-4.456,31.179l19.451,24.774l-12.378,28.964l12.378,28.963l-19.451,24.774l4.456,31.178l-25.195,18.896l-3.767,31.271l-29.232,11.73l-11.726,29.233l-31.273,3.764l-18.896,25.198l-31.178,-4.461l-24.775,19.456l-28.964,-12.378Zm0.819,-1.916c-0.523,-0.224 -1.115,-0.224 -1.638,-0l-27.829,11.893c-0,-0 -23.802,-18.693 -23.802,-18.693c-0.447,-0.351 -1.018,-0.505 -1.582,-0.424l-29.957,4.286c0,-0 -18.155,-24.211 -18.155,-24.211c-0.341,-0.455 -0.853,-0.75 -1.417,-0.818l-30.049,-3.617c0,-0 -11.268,-28.088 -11.268,-28.088c-0.212,-0.527 -0.63,-0.946 -1.158,-1.157l-28.085,-11.271c-0,0 -3.619,-30.046 -3.619,-30.046c-0.068,-0.565 -0.364,-1.077 -0.819,-1.418l-24.208,-18.155c-0,-0 4.281,-29.957 4.281,-29.957c0.081,-0.563 -0.072,-1.134 -0.423,-1.582l-18.689,-23.803c-0,-0 11.893,-27.828 11.893,-27.828c0.223,-0.523 0.223,-1.114 -0,-1.637c-0,-0 -11.893,-27.83 -11.893,-27.83c-0,0 18.689,-23.804 18.689,-23.804c0.351,-0.447 0.504,-1.018 0.423,-1.581l-4.281,-29.957c-0,-0 24.208,-18.156 24.208,-18.156c0.455,-0.341 0.751,-0.853 0.819,-1.417l3.619,-30.046c-0,-0 28.085,-11.269 28.085,-11.269c0.528,-0.211 0.946,-0.63 1.158,-1.157l11.268,-28.088c0,-0 30.049,-3.617 30.049,-3.617c0.564,-0.068 1.076,-0.364 1.417,-0.818l18.156,-24.213c-0,-0 29.957,4.283 29.957,4.283c0.563,0.081 1.134,-0.072 1.581,-0.423l23.802,-18.689c-0,-0 27.829,11.891 27.829,11.891c0.523,0.223 1.115,0.223 1.638,-0l27.829,-11.891c0,-0 23.804,18.689 23.804,18.689c0.447,0.351 1.019,0.504 1.582,0.423l29.957,-4.283c-0,-0 18.155,24.213 18.155,24.213c0.341,0.454 0.853,0.75 1.418,0.818l30.048,3.617c-0,-0 11.266,28.087 11.266,28.087c0.212,0.528 0.63,0.947 1.158,1.158l28.088,11.269c-0,-0 3.619,30.046 3.619,30.046c0.068,0.564 0.363,1.076 0.818,1.417l24.209,18.156c-0,-0 -4.282,29.957 -4.282,29.957c-0.08,0.563 0.073,1.134 0.424,1.581l18.689,23.804c-0,0 -11.894,27.83 -11.894,27.83c-0.223,0.523 -0.223,1.114 0.001,1.637l11.892,27.828c0.001,-0 -18.688,23.803 -18.688,23.803c-0.351,0.448 -0.504,1.019 -0.424,1.582l4.282,29.957c-0,-0 -24.209,18.155 -24.209,18.155c-0.455,0.341 -0.75,0.853 -0.818,1.418c-0,-0 -3.619,30.046 -3.619,30.046c-0,-0 -28.088,11.271 -28.088,11.271c-0.528,0.211 -0.946,0.63 -1.158,1.158l-11.266,28.087c-0,-0 -30.048,3.617 -30.048,3.617c-0.565,0.068 -1.077,0.363 -1.418,0.818l-18.155,24.211c-0,-0 -29.957,-4.286 -29.957,-4.286c-0.563,-0.081 -1.135,0.073 -1.582,0.424l-23.804,18.693c0,-0 -27.829,-11.893 -27.829,-11.893Z" style="fill:#fff;fill-opacity:0.5;"/><path id="badge-ring" serif:id="badge ring" d="M220.004,44.502c96.861,0 175.5,78.639 175.5,175.5c0,96.861 -78.639,175.5 -175.5,175.5c-96.861,0 -175.5,-78.639 -175.5,-175.5c0,-96.861 78.639,-175.5 175.5,-175.5Zm0,2.084c95.711,-0 173.417,77.705 173.417,173.416c-0,95.712 -77.706,173.417 -173.417,173.417c-95.711,-0 -173.417,-77.705 -173.417,-173.417c0,-95.711 77.706,-173.416 173.417,-173.416Z" style="fill:#1d1d1d;"/><path id="Coverup" d="M400.225,249.685l-0,-56.577l-39.207,-0l-0,56.577l39.207,0Z" style="fill:#326dd1;"/><path id="Coverup1" serif:id="Coverup" d="M80.225,249.685l-0,-56.577l-39.207,-0l-0,56.577l39.207,0Z" style="fill:#326dd1;"/><rect id="Coverup2" serif:id="Coverup" x="140.323" y="32.002" width="159.362" height="37.972" style="fill:#326dd1;"/><g id="Logo-test-IO" serif:id="Logo test IO"><path d="M266.629,50.868c-0.003,-0.088 -0.005,-0.177 -0.005,-0.266c-0,-3.5 2.879,-6.38 6.379,-6.38c3.5,0 6.379,2.88 6.379,6.38c0,0.089 -0.002,0.178 -0.005,0.266c-0,3.977 -2.833,6.919 -6.374,6.919c-3.541,-0 -6.374,-2.942 -6.374,-6.919m-3.622,0c-0.001,0.046 -0.001,0.091 -0.001,0.136c-0,5.484 4.513,9.997 9.997,9.997c5.484,0 9.997,-4.513 9.997,-9.997c0,-0.045 -0,-0.09 -0.001,-0.136c-0.074,-5.432 -4.563,-9.86 -9.996,-9.86c-5.433,0 -9.922,4.428 -9.996,9.86m-11.44,9.806l3.513,0l0,-19.339l-3.513,0l-0,19.339Zm-27.756,0l3.514,0l0,-16.315l6.347,-0l-0,-3.024l-16.207,0l-0,3.024l6.346,-0l0,16.315Zm-24.922,-2.315c1.784,1.732 4.187,2.683 6.673,2.642c4.032,0 6.374,-2.588 6.374,-5.665c0,-6.184 -9.097,-5.339 -9.097,-8.771c-0,-1.362 1.28,-2.315 2.914,-2.315c1.574,0.07 3.08,0.664 4.276,1.688l1.526,-2.86c-1.585,-1.408 -3.656,-2.15 -5.775,-2.07c-3.704,0 -6.482,2.397 -6.482,5.611c-0,5.938 9.124,5.339 9.124,8.798c0,1.58 -1.334,2.343 -2.805,2.343c-1.795,-0.101 -3.5,-0.823 -4.821,-2.043l-1.907,2.642Zm-18.549,2.315l12.012,0l-0,-3.023l-8.498,-0l-0,-5.203l6.509,0l0,-3.023l-6.509,-0l-0,-5.066l8.062,-0l0,-3.024l-11.576,0l-0,19.339Zm-16.779,0l3.514,0l-0,-16.315l6.346,-0l0,-3.024l-16.206,0l-0,3.024l6.346,-0l0,16.315Z" style="fill:#1d1d1d;fill-rule:nonzero;"/></g><circle id="plate" cx="220.004" cy="220.002" r="145" style="fill:#263340;"/><path d="M220.004,75.002c80.028,0 145,64.973 145,145c0,80.028 -64.972,145 -145,145c-80.028,0 -145,-64.972 -145,-145c0,-80.027 64.972,-145 145,-145Zm0,2.084c78.878,-0 142.917,64.038 142.917,142.916c-0,78.878 -64.039,142.917 -142.917,142.917c-78.878,-0 -142.917,-64.039 -142.917,-142.917c0,-78.878 64.039,-142.916 142.917,-142.916Z" style="fill:#1d1d1d;"/><path id="test-IO-symbol" serif:id="test IO symbol" d="M412.357,212.003l-3.742,4.424c0.463,1.231 0.7,2.536 0.7,3.852c0,6.004 -4.94,10.944 -10.944,10.944c-0.107,0 -0.214,-0.002 -0.321,-0.005l-23.046,0l0,5.305l22.804,-0.022l1.034,-0c8.733,-0.232 15.789,-7.479 15.789,-16.215c0,-2.915 -0.786,-5.777 -2.274,-8.283Zm-22.738,15.143c0.047,-0.003 0.085,-0.041 0.088,-0.088c0,-0.022 0,-0.044 -0.022,-0.044c-1.51,-1.928 -2.33,-4.308 -2.33,-6.757c-0,-6.013 4.947,-10.96 10.96,-10.96c0.867,-0 1.731,0.103 2.574,0.307l3.698,-4.359c-1.977,-0.82 -4.097,-1.243 -6.238,-1.243c-8.926,0 -16.271,7.346 -16.271,16.272c-0,2.382 0.523,4.736 1.532,6.894l6.009,0l0,-0.022Zm17.719,-19.678c1.47,0 2.664,1.194 2.664,2.664c-0,1.47 -1.194,2.663 -2.664,2.663c-1.47,0 -2.663,-1.193 -2.663,-2.663c-0,-1.47 1.193,-2.664 2.663,-2.664Z" style="fill:#1d1d1d;"/><path id="test-IO-symbol1" serif:id="test IO symbol" d="M62.357,212.003l-3.742,4.424c0.463,1.231 0.7,2.536 0.7,3.852c0,6.004 -4.94,10.944 -10.944,10.944c-0.107,0 -0.214,-0.002 -0.321,-0.005l-23.046,0l0,5.305l22.804,-0.022l1.034,-0c8.733,-0.232 15.789,-7.479 15.789,-16.215c0,-2.915 -0.786,-5.777 -2.274,-8.283Zm-22.738,15.143c0.047,-0.003 0.085,-0.041 0.088,-0.088c0,-0.022 0,-0.044 -0.022,-0.044c-1.51,-1.928 -2.33,-4.308 -2.33,-6.757c-0,-6.013 4.947,-10.96 10.96,-10.96c0.867,-0 1.731,0.103 2.574,0.307l3.698,-4.359c-1.977,-0.82 -4.097,-1.243 -6.238,-1.243c-8.926,0 -16.271,7.346 -16.271,16.272c-0,2.382 0.523,4.736 1.532,6.894l6.009,0l0,-0.022Zm17.719,-19.678c1.47,0 2.664,1.194 2.664,2.664c-0,1.47 -1.194,2.663 -2.664,2.663c-1.47,0 -2.663,-1.193 -2.663,-2.663c-0,-1.47 1.193,-2.664 2.663,-2.664Z" style="fill:#1d1d1d;"/></g><g transform="matrix(0.878784,0,0,0.878784,27.7009,20.8372)"><g transform="matrix(1.13794,0,0,1.13794,-0.753933,-1.83098)"><path d="M327.819,269.384c-2.93,5.777 -5.663,10.408 -9.282,15.749c-3.589,5.355 -6.85,9.615 -11.07,14.473c-4.194,4.878 -7.936,8.718 -12.702,13.037c-4.746,4.344 -8.919,7.713 -14.175,11.439c-5.24,3.754 -9.795,6.606 -15.484,9.684c-5.681,3.111 -10.569,5.403 -16.638,7.782c-6.068,2.417 -11.249,4.108 -17.647,5.739c-6.407,1.671 -11.85,2.722 -18.534,3.555c-6.704,0.872 -12.391,1.24 -19.321,1.221c-6.849,0.019 -12.47,-0.341 -19.098,-1.193c-6.608,-0.814 -11.991,-1.841 -18.33,-3.473c-6.33,-1.595 -11.458,-3.248 -17.467,-5.61c-6.009,-2.327 -10.853,-4.567 -16.485,-7.61c-5.641,-3.011 -10.161,-5.8 -15.367,-9.474c-5.22,-3.646 -9.37,-6.943 -14.096,-11.196c-4.746,-4.229 -8.478,-7.989 -12.67,-12.768c-4.217,-4.759 -7.483,-8.934 -11.088,-14.184c-3.634,-5.236 -6.389,-9.777 -9.357,-15.444l-39.534,20.833c10.855,20.527 25.716,39.478 42.838,54.854c17.164,15.326 37.703,28.071 59.515,36.62c21.815,8.476 46.315,13.293 71.139,13.333l-0,-0c25.12,-0.041 49.899,-4.974 71.927,-13.643c22.025,-8.744 42.727,-21.773 59.963,-37.427c17.192,-15.704 32.037,-35.046 42.763,-55.976l-39.8,-20.321Z" style="fill:#326dd1;"/></g><g transform="matrix(1.13794,0,0,1.13794,-0.753933,-1.83098)"><g transform="matrix(0.592996,0.805206,-0.805206,0.592996,254.706,95.4245)"><g transform="matrix(40,0,0,40,33.6637,299.664)"><path d="M0.531,-0.263l0.14,0.044c-0.022,0.078 -0.057,0.136 -0.107,0.174c-0.05,0.038 -0.114,0.057 -0.19,0.057c-0.096,0 -0.174,-0.032 -0.235,-0.097c-0.061,-0.065 -0.092,-0.154 -0.092,-0.267c0,-0.119 0.031,-0.211 0.093,-0.277c0.061,-0.066 0.142,-0.099 0.242,-0.099c0.088,-0 0.159,0.026 0.214,0.078c0.032,0.03 0.057,0.074 0.073,0.131l-0.143,0.035c-0.009,-0.037 -0.026,-0.067 -0.053,-0.088c-0.027,-0.022 -0.06,-0.032 -0.098,-0.032c-0.053,-0 -0.096,0.019 -0.129,0.057c-0.033,0.038 -0.05,0.099 -0.05,0.185c0,0.09 0.017,0.155 0.049,0.193c0.033,0.038 0.075,0.058 0.127,0.058c0.038,-0 0.072,-0.013 0.099,-0.037c0.028,-0.024 0.048,-0.063 0.06,-0.115Z" style="fill:#fff;fill-rule:nonzero;"/></g></g><g transform="matrix(0.717815,0.696234,-0.696234,0.717815,241.466,55.3991)"><g transform="matrix(40,0,0,40,53.093,325.583)"><path d="M0.261,-0l-0,-0.301l-0.262,-0.415l0.169,0l0.168,0.283l0.165,-0.283l0.167,0l-0.263,0.416l-0,0.3l-0.144,-0Z" style="fill:#fff;fill-rule:nonzero;"/></g></g><g transform="matrix(0.824095,0.566451,-0.566451,0.824095,209.331,19.0066)"><g transform="matrix(40,0,0,40,74.7659,346.549)"><path d="M0.073,-0.716l0.286,0c0.057,0 0.099,0.003 0.127,0.007c0.028,0.005 0.053,0.015 0.075,0.03c0.022,0.015 0.04,0.035 0.055,0.06c0.014,0.025 0.022,0.052 0.022,0.083c-0,0.034 -0.009,0.065 -0.027,0.093c-0.018,0.028 -0.043,0.049 -0.074,0.063c0.044,0.012 0.077,0.034 0.101,0.065c0.023,0.03 0.035,0.066 0.035,0.107c-0,0.033 -0.008,0.065 -0.023,0.095c-0.015,0.031 -0.036,0.056 -0.062,0.074c-0.026,0.019 -0.058,0.03 -0.097,0.034c-0.024,0.003 -0.082,0.004 -0.174,0.005l-0.244,0l0,-0.716Zm0.145,0.119l-0,0.166l0.094,-0c0.057,-0 0.092,-0.001 0.105,-0.003c0.025,-0.003 0.045,-0.011 0.059,-0.025c0.014,-0.014 0.021,-0.033 0.021,-0.056c0,-0.022 -0.006,-0.04 -0.018,-0.054c-0.012,-0.014 -0.031,-0.022 -0.055,-0.025c-0.014,-0.002 -0.055,-0.003 -0.123,-0.003l-0.083,0Zm-0,0.285l-0,0.191l0.134,0c0.052,0 0.085,-0.001 0.099,-0.004c0.021,-0.004 0.039,-0.013 0.052,-0.029c0.014,-0.015 0.02,-0.035 0.02,-0.06c0,-0.022 -0.005,-0.04 -0.015,-0.055c-0.011,-0.015 -0.026,-0.026 -0.045,-0.033c-0.02,-0.007 -0.063,-0.01 -0.129,-0.01l-0.116,-0Z" style="fill:#fff;fill-rule:nonzero;"/></g></g><g transform="matrix(0.906477,0.422256,-0.422256,0.906477,163.431,-8.45853)"><g transform="matrix(40,0,0,40,101.514,364.715)"><path d="M0.073,-0l-0,-0.716l0.531,0l-0,0.121l-0.387,0l0,0.159l0.36,-0l-0,0.121l-0.36,-0l0,0.194l0.4,0l0,0.121l-0.544,-0Z" style="fill:#fff;fill-rule:nonzero;"/></g></g><g transform="matrix(0.965419,0.260702,-0.260702,0.965419,102.847,-20.3403)"><g transform="matrix(40,0,0,40,128.799,377.51)"><path d="M0.073,-0l0,-0.716l0.304,0c0.077,0 0.133,0.007 0.167,0.019c0.035,0.013 0.063,0.036 0.083,0.069c0.021,0.033 0.032,0.071 0.032,0.113c-0,0.054 -0.016,0.098 -0.048,0.133c-0.031,0.035 -0.078,0.057 -0.141,0.066c0.031,0.018 0.057,0.038 0.077,0.06c0.02,0.022 0.048,0.061 0.082,0.116l0.088,0.14l-0.173,-0l-0.105,-0.156c-0.037,-0.055 -0.062,-0.091 -0.076,-0.105c-0.013,-0.014 -0.028,-0.024 -0.043,-0.03c-0.015,-0.005 -0.04,-0.008 -0.073,-0.008l-0.029,0l-0,0.299l-0.145,-0Zm0.145,-0.413l0.107,-0c0.069,-0 0.112,-0.003 0.13,-0.009c0.017,-0.006 0.03,-0.016 0.04,-0.03c0.01,-0.014 0.015,-0.032 0.015,-0.054c-0,-0.024 -0.007,-0.043 -0.02,-0.058c-0.012,-0.015 -0.031,-0.024 -0.054,-0.028c-0.012,-0.002 -0.047,-0.003 -0.105,-0.003l-0.113,0l-0,0.182Z" style="fill:#fff;fill-rule:nonzero;"/></g></g><g transform="matrix(0.994504,0.1047,-0.1047,0.994504,41.2688,-14.5719)"><g transform="matrix(40,0,0,40,160.132,385.793)"><path d="M0.036,-0.233l0.141,-0.014c0.008,0.048 0.025,0.082 0.051,0.104c0.026,0.023 0.061,0.034 0.105,0.034c0.047,-0 0.082,-0.01 0.105,-0.03c0.024,-0.02 0.036,-0.043 0.036,-0.069c-0,-0.017 -0.005,-0.031 -0.015,-0.043c-0.01,-0.012 -0.028,-0.022 -0.052,-0.031c-0.017,-0.006 -0.056,-0.017 -0.116,-0.031c-0.077,-0.02 -0.132,-0.043 -0.163,-0.071c-0.044,-0.04 -0.066,-0.088 -0.066,-0.144c0,-0.037 0.01,-0.071 0.031,-0.103c0.021,-0.031 0.05,-0.056 0.089,-0.072c0.039,-0.017 0.086,-0.025 0.141,-0.025c0.09,-0 0.158,0.02 0.203,0.059c0.046,0.039 0.069,0.092 0.072,0.158l-0.145,0.006c-0.006,-0.037 -0.019,-0.063 -0.04,-0.079c-0.02,-0.016 -0.051,-0.024 -0.091,-0.024c-0.042,-0 -0.075,0.008 -0.099,0.025c-0.015,0.012 -0.023,0.026 -0.023,0.045c0,0.017 0.007,0.031 0.022,0.043c0.018,0.016 0.062,0.032 0.132,0.048c0.071,0.017 0.123,0.034 0.156,0.052c0.034,0.017 0.061,0.042 0.08,0.072c0.019,0.031 0.028,0.069 0.028,0.115c0,0.041 -0.011,0.079 -0.034,0.115c-0.023,0.036 -0.055,0.062 -0.097,0.08c-0.041,0.017 -0.093,0.026 -0.155,0.026c-0.091,-0 -0.16,-0.021 -0.209,-0.063c-0.048,-0.042 -0.077,-0.103 -0.087,-0.183Z" style="fill:#fff;fill-rule:nonzero;"/></g></g><g transform="matrix(0.99835,-0.0574157,0.0574157,0.99835,-22.0104,11.516)"><g transform="matrix(40,0,0,40,190.105,388.794)"><path d="M0.073,-0l-0,-0.716l0.531,0l-0,0.121l-0.387,0l0,0.159l0.36,-0l-0,0.121l-0.36,-0l0,0.194l0.4,0l0,0.121l-0.544,-0Z" style="fill:#fff;fill-rule:nonzero;"/></g></g><g transform="matrix(0.975713,-0.219051,0.219051,0.975713,-79.4494,57.4707)"><g transform="matrix(40,0,0,40,220.155,387.029)"><path d="M0.531,-0.263l0.14,0.044c-0.022,0.078 -0.057,0.136 -0.107,0.174c-0.05,0.038 -0.114,0.057 -0.19,0.057c-0.096,0 -0.174,-0.032 -0.235,-0.097c-0.061,-0.065 -0.092,-0.154 -0.092,-0.267c0,-0.119 0.031,-0.211 0.093,-0.277c0.061,-0.066 0.142,-0.099 0.242,-0.099c0.088,-0 0.159,0.026 0.214,0.078c0.032,0.03 0.057,0.074 0.073,0.131l-0.143,0.035c-0.009,-0.037 -0.026,-0.067 -0.053,-0.088c-0.027,-0.022 -0.06,-0.032 -0.098,-0.032c-0.053,-0 -0.096,0.019 -0.129,0.057c-0.033,0.038 -0.05,0.099 -0.05,0.185c0,0.09 0.017,0.155 0.049,0.193c0.033,0.038 0.075,0.058 0.127,0.058c0.038,-0 0.072,-0.013 0.099,-0.037c0.028,-0.024 0.048,-0.063 0.06,-0.115Z" style="fill:#fff;fill-rule:nonzero;"/></g></g><g transform="matrix(0.923276,-0.384138,0.384138,0.923276,-126.609,125.563)"><g transform="matrix(40,0,0,40,251.73,379.73)"><path d="M0.072,-0.716l0.144,0l0,0.388c0,0.061 0.002,0.101 0.006,0.12c0.006,0.029 0.021,0.052 0.044,0.07c0.023,0.018 0.055,0.027 0.095,0.027c0.041,-0 0.072,-0.009 0.093,-0.025c0.021,-0.017 0.033,-0.038 0.038,-0.062c0.004,-0.025 0.006,-0.065 0.006,-0.122l0,-0.396l0.145,0l-0,0.376c-0,0.086 -0.004,0.147 -0.012,0.182c-0.008,0.036 -0.022,0.066 -0.043,0.09c-0.021,0.025 -0.049,0.044 -0.085,0.058c-0.035,0.015 -0.081,0.022 -0.137,0.022c-0.069,0 -0.12,-0.008 -0.156,-0.023c-0.035,-0.016 -0.063,-0.037 -0.084,-0.062c-0.02,-0.025 -0.034,-0.052 -0.04,-0.079c-0.01,-0.041 -0.014,-0.102 -0.014,-0.182l-0,-0.382Z" style="fill:#fff;fill-rule:nonzero;"/></g></g><g transform="matrix(0.839305,-0.54366,0.54366,0.839305,-154.517,211.703)"><g transform="matrix(40,0,0,40,281.559,367.231)"><path d="M0.073,-0l0,-0.716l0.304,0c0.077,0 0.133,0.007 0.167,0.019c0.035,0.013 0.063,0.036 0.083,0.069c0.021,0.033 0.032,0.071 0.032,0.113c-0,0.054 -0.016,0.098 -0.048,0.133c-0.031,0.035 -0.078,0.057 -0.141,0.066c0.031,0.018 0.057,0.038 0.077,0.06c0.02,0.022 0.048,0.061 0.082,0.116l0.088,0.14l-0.173,-0l-0.105,-0.156c-0.037,-0.055 -0.062,-0.091 -0.076,-0.105c-0.013,-0.014 -0.028,-0.024 -0.043,-0.03c-0.015,-0.005 -0.04,-0.008 -0.073,-0.008l-0.029,0l-0,0.299l-0.145,-0Zm0.145,-0.413l0.107,-0c0.069,-0 0.112,-0.003 0.13,-0.009c0.017,-0.006 0.03,-0.016 0.04,-0.03c0.01,-0.014 0.015,-0.032 0.015,-0.054c-0,-0.024 -0.007,-0.043 -0.02,-0.058c-0.012,-0.015 -0.031,-0.024 -0.054,-0.028c-0.012,-0.002 -0.047,-0.003 -0.105,-0.003l-0.113,0l-0,0.182Z" style="fill:#fff;fill-rule:nonzero;"/></g></g><g transform="matrix(0.769788,-0.638299,0.638299,0.769788,-152.071,276.77)"><g transform="matrix(40,0,0,40,308.362,349.206)"><rect x="0.068" y="-0.716" width="0.145" height="0.716" style="fill:#fff;fill-rule:nonzero;"/></g></g><g transform="matrix(0.693557,-0.720401,0.720401,0.693557,-147.23,334.07)"><g transform="matrix(40,0,0,40,319.763,340.093)"><path d="M0.234,-0l-0,-0.595l-0.213,0l0,-0.121l0.569,0l0,0.121l-0.212,0l0,0.595l-0.144,-0Z" style="fill:#fff;fill-rule:nonzero;"/></g></g><g transform="matrix(0.575374,-0.81789,0.81789,0.575374,-118.018,412.595)"><g transform="matrix(40,0,0,40,339.053,319.957)"><path d="M0.261,-0l-0,-0.301l-0.262,-0.415l0.169,0l0.168,0.283l0.165,-0.283l0.167,0l-0.263,0.416l-0,0.3l-0.144,-0Z" style="fill:#fff;fill-rule:nonzero;"/></g></g></g></g><path id="Shadow" d="M363.13,243.202c-8.402,52.255 -44.777,95.202 -93.245,112.978l-84.076,-84.077l-30.696,-55.743l0.953,-39.922l61.067,-18.599l0.788,-5.718l4.166,-0c10.262,13.877 29.478,21.604 66.833,16.871l74.21,74.21Z" style="fill:#1d1d1d;"/><path id="shield" d="M219.6,165.475c8.347,5.765 25.472,13.695 57.312,14.811c1.639,22.767 -1.503,42.368 -10.266,58.427c-9.205,16.868 -24.629,29.642 -46.642,38.224c-22.012,-8.582 -37.436,-21.355 -46.642,-38.224c-8.763,-16.059 -11.904,-35.66 -10.265,-58.428c31.613,-1.113 48.348,-8.986 56.503,-14.81Z" style="fill:#fff;"/><path id="shield1" serif:id="shield" d="M217.921,152.121l-0,10.315c-9.084,6.052 -26.797,13.7 -58.998,14.763c-1.833,24.56 1.521,45.689 10.957,62.981c9.59,17.574 25.478,31.007 48.041,40.182l-0,9.073l1.515,0.567c-54.264,-19.989 -74.916,-61.71 -68.21,-121.123c43.449,0 61.166,-11.829 66.695,-16.758Zm4.166,-0c5.53,4.929 23.247,16.758 66.696,16.758c6.706,59.413 -13.947,101.134 -68.211,121.123l1.515,-0.567l0,-9.074c22.565,-9.176 38.452,-22.608 48.042,-40.181c9.435,-17.291 12.789,-38.42 10.956,-62.981c-31.479,-1.033 -49.46,-8.324 -58.998,-14.247l0,-10.831Z" style="fill:#fff;"/><path d="M215.004,260l-15,-0l0,-10l-10,0.002l0,-50l30,0l0,10.001l40,-0.001l0,10" style="fill:none;stroke:#1d1d1d;stroke-width:4.17px;"/><rect x="200.004" y="210.002" width="10" height="30.001" style="fill:none;stroke:#1d1d1d;stroke-width:4.17px;"/><rect x="250.004" y="190.002" width="10" height="10" style="fill:none;stroke:#1d1d1d;stroke-width:4.17px;"/><rect x="170.004" y="200.002" width="10" height="10" style="fill:none;stroke:#1d1d1d;stroke-width:4.17px;"/><path d="M250.004,230.003l-10,-0.001l0,-9.999l20,-0.003" style="fill:none;stroke:#1d1d1d;stroke-width:4.17px;"/><path d="M190.004,220.003l-20,-0.001" style="fill:none;stroke:#1d1d1d;stroke-width:4.17px;"/><path d="M190.004,230.003l-10,-0.001" style="fill:none;stroke:#1d1d1d;stroke-width:4.17px;"/><path d="M250.004,250.003l-10,-0.001" style="fill:none;stroke:#1d1d1d;stroke-width:4.17px;"/><path d="M240.004,250.003l-10,-0.001" style="fill:none;stroke:#1d1d1d;stroke-width:4.17px;"/><path d="M210.004,250.003l-10,-0.001" style="fill:none;stroke:#1d1d1d;stroke-width:4.17px;"/><path d="M250.004,240.003l-10,-0.001" style="fill:none;stroke:#1d1d1d;stroke-width:4.17px;"/><path d="M230.004,250.003l0,-10" style="fill:none;stroke:#1d1d1d;stroke-width:4.17px;"/><path d="M240.004,200.003l-10,-0.001" style="fill:none;stroke:#1d1d1d;stroke-width:4.17px;"/><path d="M240.004,190.003l-20,-0.001" style="fill:none;stroke:#1d1d1d;stroke-width:4.17px;"/><path d="M190.004,240.003l-10,-0.001" style="fill:none;stroke:#1d1d1d;stroke-width:4.17px;"/><circle cx="255.004" cy="230" r="5" style="fill:none;stroke:#1d1d1d;stroke-width:4.17px;"/><circle cx="220.004" cy="220" r="2" style="fill:#1d1d1d;"/><circle cx="230.004" cy="220" r="2" style="fill:#1d1d1d;"/><circle cx="220.004" cy="230" r="2" style="fill:#1d1d1d;"/><circle cx="220.004" cy="240" r="2" style="fill:#1d1d1d;"/><circle cx="230.004" cy="230" r="2" style="fill:#1d1d1d;"/><circle cx="220.004" cy="260" r="5" style="fill:none;stroke:#1d1d1d;stroke-width:4.17px;"/><path d="M225.004,260.002l15,0l0,-30" style="fill:none;stroke:#1d1d1d;stroke-width:4.17px;"/><path d="M270.004,190.002l0,20l-10,0" style="fill:none;stroke:#1d1d1d;stroke-width:4.17px;"/><path d="M200.004,180.002l0,10" style="fill:none;stroke:#1d1d1d;stroke-width:4.17px;"/><path d="M220.004,190.002l0,10" style="fill:none;stroke:#1d1d1d;stroke-width:4.17px;"/><path d="M240.004,200.002l0,-20l-30,0l0,10l-40,0" style="fill:none;stroke:#1d1d1d;stroke-width:4.17px;"/></g></svg>
